<svg width="1255" height="953" viewBox="0 0 1255 953" fill="none" xmlns="http://www.w3.org/2000/svg">
<g filter="url(#filter0_f_1_1713)">
<ellipse cx="627.5" cy="476.5" rx="327.5" ry="176.5" fill="url(#paint0_radial_1_1713)" fill-opacity="0.59"/>
</g>
<mask id="mask0_1_1713" style="mask-type:alpha" maskUnits="userSpaceOnUse" x="300" y="300" width="655" height="353">
<ellipse cx="627.5" cy="476.5" rx="327.5" ry="176.5" fill="url(#paint1_radial_1_1713)" fill-opacity="0.59"/>
</mask>
<g mask="url(#mask0_1_1713)">
<path d="M1004 121L1004 986M944 121L944 986M884 121L884 986M824 121L824 986M764 121L764 986M704 121L704 986M644 121L644 986M584 121L584 986M524 121L524 986M464 121L464 986M404 121L404 986M344 121L344 986M241 179.5L1106 179.5M241 239.5L1106 239.5M241 299.5L1106 299.5M241 359.5L1106 359.5M241 419.5L1106 419.5M241 479.5L1106 479.5M241 539.5L1106 539.5M241 599.5L1106 599.5M241 659.5L1106 659.5M241 719.5L1106 719.5M241 779.5L1106 779.5M241 839.5L1106 839.5M241 903.5L1106 903.5M241 963.5L1106 963.5M241 1023.5L1106 1023.5M241 1083.5L1106 1083.5" stroke="white" stroke-opacity="0.24"/>
</g>
<defs>
<filter id="filter0_f_1_1713" x="0" y="0" width="1255" height="953" filterUnits="userSpaceOnUse" color-interpolation-filters="sRGB">
<feFlood flood-opacity="0" result="BackgroundImageFix"/>
<feBlend mode="normal" in="SourceGraphic" in2="BackgroundImageFix" result="shape"/>
<feGaussianBlur stdDeviation="150" result="effect1_foregroundBlur_1_1713"/>
</filter>
<radialGradient id="paint0_radial_1_1713" cx="0" cy="0" r="1" gradientUnits="userSpaceOnUse" gradientTransform="translate(530.5 423.954) rotate(39.9315) scale(337.11 364.539)">
<stop stop-color="#8B4DFF"/>
<stop offset="1" stop-color="#2984EB"/>
</radialGradient>
<radialGradient id="paint1_radial_1_1713" cx="0" cy="0" r="1" gradientUnits="userSpaceOnUse" gradientTransform="translate(530.5 423.954) rotate(39.9315) scale(337.11 364.539)">
<stop stop-color="#8B4DFF"/>
<stop offset="1" stop-color="#2984EB"/>
</radialGradient>
</defs>
</svg>
