<svg width="30" height="30" viewBox="0 0 30 30" fill="none" xmlns="http://www.w3.org/2000/svg">
<circle cx="15" cy="15" r="14.5" stroke="white"/>
<path d="M13.826 18.654L13.144 8.6H17.236L16.554 18.654H13.826ZM15.19 24.176C14.574 24.176 14.068 23.978 13.672 23.582C13.276 23.186 13.078 22.7167 13.078 22.174C13.078 21.6167 13.276 21.1547 13.672 20.788C14.068 20.4067 14.574 20.216 15.19 20.216C15.8207 20.216 16.3267 20.4067 16.708 20.788C17.104 21.1547 17.302 21.6167 17.302 22.174C17.302 22.7167 17.104 23.186 16.708 23.582C16.3267 23.978 15.8207 24.176 15.19 24.176Z" fill="white"/>
</svg>
