<svg width="18" height="16" viewBox="0 0 18 16" fill="none" xmlns="http://www.w3.org/2000/svg">
<path fill-rule="evenodd" clip-rule="evenodd" d="M15.7811 0.111529C15.6712 0.140285 12.2246 1.55769 8.12202 3.26135C2.98713 5.39367 0.606512 6.4001 0.482218 6.49111C-0.111694 6.92588 -0.0868898 7.57135 0.54091 8.02091C0.721102 8.14994 0.950088 8.2405 1.86786 8.5456C2.47792 8.7484 3.29146 9.01917 3.67576 9.14726L4.37448 9.38017L5.04136 11.5192C5.40815 12.6956 5.74878 13.7431 5.79831 13.8468C5.90731 14.0751 6.07248 14.2652 6.23082 14.3446C6.40655 14.4327 6.69489 14.4197 6.89666 14.3145C6.99052 14.2655 7.53129 13.8062 8.0983 13.2939C8.66535 12.7815 9.14324 12.3623 9.16028 12.3623C9.17736 12.3623 9.94164 12.9308 10.8588 13.6255C11.7759 14.3204 12.5873 14.9193 12.6621 14.9566C13.0152 15.1329 13.456 15.148 13.8195 14.9964C14.037 14.9057 14.3698 14.5929 14.4662 14.3886C14.5611 14.1876 17.0941 1.35983 17.0999 1.05119C17.1064 0.700579 17.0164 0.476025 16.7929 0.285271C16.5299 0.0608295 16.1951 0.00335466 15.7811 0.111529ZM13.8592 2.86787C13.783 2.94552 12.3032 4.5463 10.5708 6.42521L7.42086 9.84143L6.8422 11.3371C6.48729 12.2544 6.25388 12.8092 6.23862 12.7716C6.22496 12.738 5.96247 11.8996 5.65538 10.9085C5.22307 9.51337 5.10747 9.09641 5.14334 9.06178C5.20397 9.00318 13.9571 2.72906 13.9801 2.72774C13.9897 2.72717 13.9353 2.79026 13.8592 2.86787Z" fill="white"/>
</svg>
